<svg width="38" height="38" viewBox="0 0 38 38" fill="none" xmlns="http://www.w3.org/2000/svg">
<path fill-rule="evenodd" clip-rule="evenodd" d="M34.9175 15.3C35.1345 16.3745 35.25 17.4858 35.25 18.625C35.25 27.8003 27.8003 35.25 18.625 35.25C9.44975 35.25 2 27.8003 2 18.625C2 9.44975 9.44975 2 18.625 2C19.7642 2 20.8755 2.1155 21.95 2.3325C22.4242 2.42875 22.8862 2.1225 22.9825 1.65C23.0787 1.1775 22.7725 0.71375 22.3 0.6175C21.1118 0.376 19.8832 0.25 18.625 0.25C8.48375 0.25 0.25 8.48375 0.25 18.625C0.25 28.7663 8.48375 37 18.625 37C28.7663 37 37 28.7663 37 18.625C37 17.3668 36.874 16.1382 36.6325 14.95C36.5363 14.4775 36.0725 14.1713 35.6 14.2675C35.1275 14.3638 34.8213 14.8258 34.9175 15.3Z" fill="black" stroke="black" stroke-width="0.5"/>
<path fill-rule="evenodd" clip-rule="evenodd" d="M30.8765 1.125L30.873 9.875C30.873 10.358 31.265 10.75 31.748 10.75C32.231 10.75 32.623 10.358 32.623 9.875L32.6265 1.125C32.6265 0.642 32.2345 0.25 31.7515 0.25C31.2685 0.25 30.8765 0.642 30.8765 1.125Z" fill="black" stroke="black" stroke-width="0.5"/>
<path fill-rule="evenodd" clip-rule="evenodd" d="M27.375 6.375L36.125 6.3785C36.608 6.3785 37 5.9865 37 5.5035C37 5.0205 36.608 4.6285 36.125 4.6285L27.375 4.625C26.892 4.625 26.5 5.017 26.5 5.5C26.5 5.983 26.892 6.375 27.375 6.375Z" fill="black" stroke="black" stroke-width="0.5"/>
<path fill-rule="evenodd" clip-rule="evenodd" d="M10.75 9.875V27.375C10.75 27.858 11.142 28.25 11.625 28.25C12.108 28.25 12.5 27.858 12.5 27.375V9.875C12.5 9.392 12.108 9 11.625 9C11.142 9 10.75 9.392 10.75 9.875Z" fill="black" stroke="black" stroke-width="0.5"/>
<path fill-rule="evenodd" clip-rule="evenodd" d="M27.375 22.125C27.375 20.9648 26.9147 19.8518 26.094 19.031C25.2732 18.2103 24.1603 17.75 23 17.75C22.4243 17.75 21.8257 17.75 21.25 17.75C20.0898 17.75 18.9768 18.2103 18.156 19.031C17.3353 19.8518 16.875 20.9648 16.875 22.125V23.875C16.875 25.0353 17.3353 26.1482 18.156 26.969C18.9768 27.7897 20.0898 28.25 21.25 28.25H23C24.1603 28.25 25.2732 27.7897 26.094 26.969C26.9147 26.1482 27.375 25.0353 27.375 23.875V22.125ZM25.625 22.125V23.875C25.625 24.5715 25.3485 25.2383 24.8567 25.7318C24.3632 26.2235 23.6965 26.5 23 26.5H21.25C20.5535 26.5 19.8868 26.2235 19.3933 25.7318C18.9015 25.2383 18.625 24.5715 18.625 23.875V22.125C18.625 21.4285 18.9015 20.7618 19.3933 20.2683C19.8868 19.7765 20.5535 19.5 21.25 19.5H23C23.6965 19.5 24.3632 19.7765 24.8567 20.2683C25.3485 20.7618 25.625 21.4285 25.625 22.125Z" fill="black" stroke="black" stroke-width="0.5"/>
<path fill-rule="evenodd" clip-rule="evenodd" d="M27.375 13.375C27.375 12.2148 26.9147 11.1017 26.094 10.281C25.2732 9.46025 24.1603 9 23 9C22.4243 9 21.8257 9 21.25 9C20.0898 9 18.9768 9.46025 18.156 10.281C17.3353 11.1017 16.875 12.2148 16.875 13.375V15.125C16.875 16.2853 17.3353 17.3982 18.156 18.219C18.9768 19.0397 20.0898 19.5 21.25 19.5H23C24.1603 19.5 25.2732 19.0397 26.094 18.219C26.9147 17.3982 27.375 16.2853 27.375 15.125V13.375ZM25.625 13.375V15.125C25.625 15.8215 25.3485 16.4882 24.8567 16.9817C24.3632 17.4735 23.6965 17.75 23 17.75H21.25C20.5535 17.75 19.8868 17.4735 19.3933 16.9817C18.9015 16.4882 18.625 15.8215 18.625 15.125V13.375C18.625 12.6785 18.9015 12.0118 19.3933 11.5183C19.8868 11.0265 20.5535 10.75 21.25 10.75H23C23.6965 10.75 24.3632 11.0265 24.8567 11.5183C25.3485 12.0118 25.625 12.6785 25.625 13.375Z" fill="black" stroke="black" stroke-width="0.5"/>
</svg>
