<svg width="22" height="16" viewBox="0 0 22 16" fill="none" xmlns="http://www.w3.org/2000/svg">
<path d="M20.75 5.75H0.75M9.75 9.75H4.75M0.75 3.95L0.75 11.55C0.75 12.6701 0.75 13.2302 0.967987 13.658C1.15973 14.0343 1.46569 14.3403 1.84202 14.532C2.26984 14.75 2.82989 14.75 3.95 14.75L17.55 14.75C18.6701 14.75 19.2302 14.75 19.658 14.532C20.0343 14.3403 20.3403 14.0343 20.532 13.658C20.75 13.2302 20.75 12.6701 20.75 11.55V3.95C20.75 2.8299 20.75 2.26984 20.532 1.84202C20.3403 1.4657 20.0343 1.15974 19.658 0.967988C19.2302 0.750001 18.6701 0.750001 17.55 0.750001L3.95 0.75C2.8299 0.75 2.26984 0.75 1.84202 0.967987C1.4657 1.15973 1.15973 1.46569 0.967987 1.84202C0.75 2.26984 0.75 2.82989 0.75 3.95Z" stroke="black" stroke-width="1.5" stroke-linecap="round" stroke-linejoin="round"/>
</svg>
