<svg width="32" height="32" viewBox="0 0 32 32" fill="none" xmlns="http://www.w3.org/2000/svg">
<path d="M16 31.9997C1.70337 31.9997 -0.019449 19.6127 0.000163688 16.516V15.4837C-0.019449 12.387 1.70337 0 16 0C30.2966 0 32.0195 12.387 31.9998 15.4837V16.516C32.0195 19.6127 30.2966 31.9997 16 31.9997Z" fill="url(#paint0_linear_4464_274)"/>
<path d="M24.6741 18.5996C24.7544 18.5818 24.8378 18.5837 24.9171 18.6051C24.9965 18.6265 25.0695 18.6669 25.1298 18.7227C25.1902 18.7785 25.2361 18.8481 25.2637 18.9255C25.2913 19.0029 25.2998 19.0859 25.2883 19.1673C25.251 19.5961 25.1767 20.0209 25.0664 20.437C22.2983 21.9826 19.1701 22.7673 16.0002 22.711C12.8301 22.7668 9.70189 21.9816 6.93393 20.4354C6.82358 20.0194 6.74933 19.5946 6.712 19.1658C6.70054 19.0844 6.70897 19.0014 6.73658 18.924C6.76418 18.8465 6.81013 18.7769 6.87049 18.7211C6.93086 18.6653 7.00384 18.625 7.0832 18.6036C7.16256 18.5821 7.24593 18.5802 7.32619 18.598C10.1502 19.3901 13.0673 19.8013 16.0002 19.8207C18.933 19.8018 21.8501 19.3911 24.6741 18.5996Z" fill="url(#paint1_linear_4464_274)"/>
<path d="M25.2904 18.5791H25.2863C25.2879 18.503 25.2721 18.4276 25.2402 18.3585C25.2082 18.2894 25.1609 18.2285 25.1019 18.1804C25.0429 18.1324 24.9737 18.0984 24.8996 18.0811C24.8255 18.0638 24.7484 18.0636 24.6742 18.0806C21.8501 18.8721 18.933 19.2828 16.0002 19.3017C13.0673 19.2823 10.1502 18.871 7.32621 18.079C7.25188 18.062 7.17465 18.0622 7.10041 18.0796C7.02616 18.097 6.95688 18.1311 6.89783 18.1794C6.83878 18.2276 6.79153 18.2887 6.75969 18.358C6.72784 18.4273 6.71225 18.5029 6.71409 18.5791H6.70996V19.0953H6.71409C6.71254 19.1181 6.71254 19.141 6.71409 19.1639C6.75142 19.5927 6.82567 20.0175 6.93602 20.4336C7.00319 20.7069 7.08766 20.9756 7.18892 21.2382C7.73027 22.6115 8.63893 23.8094 9.81548 24.7009C11.5744 26.0992 13.7552 26.8604 16.0023 26.8604C18.2493 26.8604 20.4301 26.0992 22.189 24.7009C23.3656 23.8094 24.2742 22.6115 24.8156 21.2382C24.9168 20.9756 25.0013 20.7069 25.0685 20.4336C25.1788 20.0175 25.2531 19.5927 25.2904 19.1639C25.292 19.141 25.292 19.1181 25.2904 19.0953V18.5791Z" fill="#ED8D06"/>
<path d="M25.2863 19.0948C25.2879 19.0187 25.2721 18.9432 25.2402 18.8741C25.2082 18.805 25.1609 18.7441 25.1019 18.6961C25.0429 18.648 24.9737 18.614 24.8996 18.5967C24.8255 18.5794 24.7484 18.5792 24.6742 18.5962C21.8501 19.3877 18.933 19.7984 16.0002 19.8173C13.0673 19.7979 10.1502 19.3867 7.32621 18.5946C7.25188 18.5776 7.17465 18.5778 7.10041 18.5952C7.02616 18.6126 6.95688 18.6467 6.89783 18.695C6.83878 18.7432 6.79153 18.8043 6.75969 18.8736C6.72784 18.9429 6.71225 19.0185 6.71409 19.0948H6.70996V19.6109H6.71409C6.71254 19.6337 6.71254 19.6567 6.71409 19.6795C6.75142 20.1083 6.82567 20.5331 6.93602 20.9492C7.00319 21.2225 7.08766 21.4912 7.18892 21.7538C7.73027 23.1271 8.63893 24.325 9.81548 25.2165C11.5744 26.6148 13.7552 27.376 16.0023 27.376C18.2493 27.376 20.4301 26.6148 22.189 25.2165C23.3656 24.325 24.2742 23.1271 24.8156 21.7538C24.9168 21.4912 25.0013 21.2225 25.0685 20.9492C25.1788 20.5331 25.2531 20.1083 25.2904 19.6795C25.292 19.6567 25.292 19.6337 25.2904 19.6109V19.0948H25.2863Z" fill="#F9BF06"/>
<path d="M19.5703 26.1984C17.2664 27.0518 14.7331 27.0518 12.4292 26.1984C12.599 25.7494 13.3675 24.2578 15.9997 24.2578C18.632 24.2578 19.4005 25.7494 19.5703 26.1984Z" fill="#8F030E"/>
<path d="M24.8132 21.2393C24.2718 22.6126 23.3631 23.8105 22.1866 24.7019C21.3966 25.3322 20.5141 25.8371 19.5704 26.1987C19.4006 25.7492 18.6321 24.2576 15.9998 24.2576C13.3676 24.2576 12.5991 25.7486 12.4293 26.1977C11.4855 25.836 10.6031 25.3312 9.81305 24.7009C8.6365 23.8094 7.72784 22.6115 7.18649 21.2382C7.08516 20.9757 7.00069 20.7069 6.93359 20.4336C9.70155 21.9798 12.8298 22.765 15.9998 22.7092C19.1699 22.765 22.2981 21.9798 25.0661 20.4336C24.999 20.7073 24.9145 20.9764 24.8132 21.2393Z" fill="url(#paint2_linear_4464_274)"/>
<path d="M24.6741 18.5996C24.7544 18.5818 24.8378 18.5837 24.9171 18.6051C24.9965 18.6265 25.0695 18.6669 25.1298 18.7227C25.1902 18.7785 25.2361 18.8481 25.2637 18.9255C25.2913 19.0029 25.2998 19.0859 25.2883 19.1673C25.251 19.5961 25.1767 20.0209 25.0664 20.437C22.2983 21.9826 19.1701 22.7673 16.0002 22.711C12.8301 22.7668 9.70189 21.9816 6.93393 20.4354C6.82358 20.0194 6.74933 19.5946 6.712 19.1658C6.70054 19.0844 6.70897 19.0014 6.73658 18.924C6.76418 18.8465 6.81013 18.7769 6.87049 18.7211C6.93086 18.6653 7.00384 18.625 7.0832 18.6036C7.16256 18.5821 7.24593 18.5802 7.32619 18.598C10.1502 19.3901 13.0673 19.8013 16.0002 19.8207C18.933 19.8018 21.8501 19.3911 24.6741 18.5996Z" fill="url(#paint3_linear_4464_274)"/>
<path d="M24.6741 18.5996C24.7544 18.5818 24.8378 18.5837 24.9171 18.6051C24.9965 18.6265 25.0695 18.6669 25.1298 18.7227C25.1902 18.7785 25.2361 18.8481 25.2637 18.9255C25.2913 19.0029 25.2998 19.0859 25.2883 19.1673C25.251 19.5961 25.1767 20.0209 25.0664 20.437C22.2983 21.9826 19.1701 22.7673 16.0002 22.711C12.8301 22.7668 9.70189 21.9816 6.93393 20.4354C6.82358 20.0194 6.74933 19.5946 6.712 19.1658C6.70054 19.0844 6.70897 19.0014 6.73658 18.924C6.76418 18.8465 6.81013 18.7769 6.87049 18.7211C6.93086 18.6653 7.00384 18.625 7.0832 18.6036C7.16256 18.5821 7.24593 18.5802 7.32619 18.598C10.1502 19.3901 13.0673 19.8013 16.0002 19.8207C18.933 19.8018 21.8501 19.3911 24.6741 18.5996Z" fill="url(#paint4_linear_4464_274)"/>
<path d="M29.6604 6.11682C27.1365 5.45721 25.8065 6.71088 25.8065 6.71088C25.8065 6.71088 25.118 4.92973 22.5941 4.27013C22.2004 4.13657 21.783 4.08748 21.369 4.12604C20.955 4.1646 20.5538 4.28996 20.1915 4.49394C19.8292 4.69792 19.514 4.97595 19.2663 5.30991C19.0187 5.64387 18.8442 6.02626 18.7542 6.43217C18.549 7.16773 18.5258 7.94214 18.6866 8.68866C19.464 11.6606 21.0327 14.3662 23.2259 16.5172C26.1374 15.7136 28.7583 14.094 30.7793 11.8494C31.2995 11.2848 31.676 10.6032 31.8771 9.86233C32.1476 8.8786 32.1842 6.77643 29.6604 6.11682Z" fill="#EC3A4A"/>
<path d="M29.6604 6.11678C27.1365 5.45718 25.8065 6.71084 25.8065 6.71084C25.8065 6.71084 25.118 4.9297 22.5941 4.27009C22.2004 4.13654 21.7829 4.08746 21.3689 4.12606C20.9549 4.16465 20.5537 4.29005 20.1914 4.49409C19.8291 4.69812 19.5138 4.97621 19.2662 5.31023C19.0186 5.64425 18.8441 6.02669 18.7542 6.43265C18.549 7.16804 18.5258 7.94228 18.6866 8.68863C19.4639 11.6606 21.0327 14.3661 23.2259 16.5172C26.1374 15.7136 28.7583 14.0939 30.7793 11.8494C31.2995 11.2847 31.676 10.6032 31.8771 9.86229C32.1476 8.87856 32.1842 6.77639 29.6604 6.11678Z" fill="url(#paint5_linear_4464_274)"/>
<path d="M22.1799 5.18991C24.807 5.87739 25.5409 7.6704 25.5409 7.6704C25.5409 7.6704 26.9092 6.42706 29.5362 7.11454C31.2069 7.5517 31.8072 8.56227 31.9543 9.49335C32.123 8.42601 31.9026 6.70164 29.6601 6.11532C27.1362 5.45572 25.8062 6.70938 25.8062 6.70938C25.8062 6.70938 25.1177 4.92824 22.5938 4.26863C20.3766 3.68903 19.303 5.03662 18.8901 6.03842C19.4971 5.31946 20.5309 4.75843 22.1799 5.18991Z" fill="url(#paint6_linear_4464_274)"/>
<path d="M28.525 9.86235C28.5073 9.98859 28.518 10.1172 28.5564 10.2387C28.5948 10.3603 28.6599 10.4717 28.747 10.5648C28.834 10.658 28.9408 10.7304 29.0594 10.777C29.1781 10.8235 29.3057 10.8429 29.4328 10.8337C29.6214 10.8133 29.8066 10.769 29.9841 10.7021C30.269 10.6021 30.5163 10.4168 30.6923 10.1713C30.8683 9.92589 30.9645 9.63223 30.9678 9.33023C30.9389 9.01635 30.8107 8.71985 30.6019 8.48379C30.2297 8.0394 28.9162 7.3447 28.4677 8.03115C28.2612 8.34856 28.5276 8.91527 28.5461 9.26571C28.5561 9.46483 28.5491 9.66444 28.525 9.86235Z" fill="url(#paint7_linear_4464_274)"/>
<path d="M23.7972 8.12454C23.7708 8.49408 23.952 8.81201 24.1584 8.77175C24.2371 8.75704 24.3121 8.72725 24.3793 8.68401C24.514 8.5747 24.6203 8.43444 24.689 8.27519C24.7578 8.11594 24.787 7.94243 24.7742 7.76944C24.7663 7.57314 24.7165 7.3808 24.6281 7.20532C24.479 6.90906 23.9535 6.4461 23.7744 6.90339C23.7396 7.17852 23.7502 7.45751 23.8059 7.72918C23.8096 7.86103 23.8067 7.99298 23.7972 8.12454Z" fill="url(#paint8_linear_4464_274)"/>
<path d="M2.33994 6.11678C4.86379 5.45718 6.19384 6.71084 6.19384 6.71084C6.19384 6.71084 6.88235 4.9297 9.4062 4.27009C9.79996 4.13654 10.2174 4.08746 10.6315 4.12606C11.0455 4.16465 11.4467 4.29005 11.809 4.49409C12.1713 4.69812 12.4865 4.97621 12.7341 5.31023C12.9818 5.64425 13.1562 6.02669 13.2462 6.43265C13.4513 7.16804 13.4745 7.94228 13.3138 8.68863C12.5364 11.6606 10.9676 14.3661 8.77446 16.5172C5.86294 15.7136 3.24203 14.0939 1.22099 11.8494C0.700841 11.2847 0.324296 10.6032 0.123193 9.86229C-0.147256 8.87856 -0.183901 6.77639 2.33994 6.11678Z" fill="url(#paint9_linear_4464_274)"/>
<path d="M9.81977 5.1899C7.1927 5.87738 6.45877 7.67039 6.45877 7.67039C6.45877 7.67039 5.09053 6.42705 2.46346 7.11453C0.792765 7.55169 0.192513 8.56226 0.0454181 9.49334C-0.123354 8.426 0.0970304 6.70163 2.33959 6.11531C4.86343 5.45571 6.19348 6.70937 6.19348 6.70937C6.19348 6.70937 6.88199 4.92823 9.40584 4.26862C11.6252 3.68902 12.6992 5.03662 13.1111 6.04048C12.5026 5.31945 11.4688 4.75842 9.81977 5.1899Z" fill="url(#paint10_linear_4464_274)"/>
<path d="M10.3514 8.001C10.4067 8.11586 10.4869 8.21691 10.5862 8.29675C10.6856 8.37659 10.8015 8.4332 10.9256 8.46245C11.0496 8.49169 11.1786 8.49282 11.3032 8.46576C11.4277 8.43869 11.5446 8.38412 11.6454 8.30603C11.791 8.18428 11.9206 8.04449 12.0309 7.89004C12.2122 7.64881 12.3148 7.35764 12.3249 7.05608C12.3349 6.75451 12.2519 6.45715 12.0872 6.20438C11.8889 5.95933 11.6177 5.7838 11.313 5.70322C10.7566 5.53961 9.27842 5.69032 9.28616 6.51044C9.28926 6.88927 9.82654 7.21288 10.0361 7.49417C10.1554 7.65388 10.2609 7.82343 10.3514 8.001Z" fill="url(#paint11_linear_4464_274)"/>
<path d="M5.45277 9.17257C5.63599 9.49463 5.96373 9.65824 6.11392 9.51011C6.17102 9.45421 6.21677 9.38779 6.24863 9.3145C6.29985 9.14863 6.31022 8.97283 6.27886 8.80209C6.2475 8.63134 6.17533 8.47071 6.0685 8.33387C5.95259 8.17501 5.80429 8.04255 5.63341 7.94523C5.34541 7.78161 4.65278 7.68716 4.756 8.16819C4.80452 8.39012 5.10335 8.64509 5.23909 8.83554C5.316 8.94547 5.38722 9.05799 5.45277 9.17257Z" fill="url(#paint12_linear_4464_274)"/>
<path d="M18.6866 8.68932C18.5258 7.94297 18.549 7.16873 18.7542 6.43334C18.88 5.98861 19.0903 5.57226 19.3735 5.20703C18.8228 5.65544 18.4259 6.26459 18.2381 6.94947C18.0329 7.68485 18.0097 8.45909 18.1704 9.20544C18.948 12.1774 20.5167 14.8829 22.7098 17.034C25.4803 16.2726 27.9896 14.7672 29.9654 12.681C28.0758 14.5044 25.7584 15.8237 23.2259 16.5179C21.0328 14.3667 19.4641 11.6612 18.6866 8.68932Z" fill="#ED8D06"/>
<path d="M13.3161 8.68932C12.5379 11.6615 10.9682 14.3671 8.77421 16.5179C6.24174 15.8237 3.92427 14.5044 2.03467 12.681C4.01048 14.7672 6.51974 16.2726 9.29034 17.034C11.4843 14.8832 13.054 12.1776 13.8322 9.20544C13.993 8.45909 13.9698 7.68485 13.7646 6.94947C13.5768 6.26459 13.1798 5.65544 12.6291 5.20703C12.9124 5.57226 13.1227 5.98861 13.2485 6.43334C13.4536 7.16873 13.4768 7.94297 13.3161 8.68932Z" fill="#ED8D06"/>
<defs>
<linearGradient id="paint0_linear_4464_274" x1="16" y1="0.156902" x2="16" y2="32.1566" gradientUnits="userSpaceOnUse">
<stop stop-color="#FFE100"/>
<stop offset="1" stop-color="#F98900"/>
</linearGradient>
<linearGradient id="paint1_linear_4464_274" x1="6.70993" y1="20.647" x2="25.2904" y2="20.647" gradientUnits="userSpaceOnUse">
<stop stop-color="#B8B4B2"/>
<stop offset="0.143" stop-color="#D0CCC9"/>
<stop offset="0.374" stop-color="#F2EDEA"/>
<stop offset="0.5" stop-color="#FFFAF6"/>
<stop offset="0.638" stop-color="#F9F5F1"/>
<stop offset="0.825" stop-color="#E8E5E3"/>
<stop offset="1" stop-color="#D1D1D1"/>
</linearGradient>
<linearGradient id="paint2_linear_4464_274" x1="15.9998" y1="26.9801" x2="15.9998" y2="18.6014" gradientUnits="userSpaceOnUse">
<stop stop-color="#69101B"/>
<stop offset="0.427" stop-color="#400A10"/>
</linearGradient>
<linearGradient id="paint3_linear_4464_274" x1="16.0002" y1="19.1823" x2="16.0002" y2="22.6517" gradientUnits="userSpaceOnUse">
<stop stop-color="#B8B4B2"/>
<stop offset="0.143" stop-color="#D0CCC9"/>
<stop offset="0.374" stop-color="#F2EDEA"/>
<stop offset="0.5" stop-color="#FFFAF6"/>
<stop offset="0.638" stop-color="#F9F5F1"/>
<stop offset="0.825" stop-color="#E8E5E3"/>
<stop offset="1" stop-color="#D1D1D1"/>
</linearGradient>
<linearGradient id="paint4_linear_4464_274" x1="16.0002" y1="19.1823" x2="16.0002" y2="22.6517" gradientUnits="userSpaceOnUse">
<stop stop-color="#ABABAB" stop-opacity="0.5"/>
<stop offset="0.541" stop-color="#C1C1C1" stop-opacity="0.216"/>
<stop offset="1" stop-color="#D1D1D1" stop-opacity="0"/>
</linearGradient>
<linearGradient id="paint5_linear_4464_274" x1="26.6421" y1="4.23912" x2="22.5487" y2="16.3164" gradientUnits="userSpaceOnUse">
<stop stop-color="#FF5F6F"/>
<stop offset="0.346" stop-color="#FF2D44"/>
<stop offset="0.722" stop-color="#D41E32"/>
<stop offset="0.853" stop-color="#D61F33"/>
<stop offset="0.918" stop-color="#DE2337"/>
<stop offset="0.968" stop-color="#EB293E"/>
<stop offset="1" stop-color="#F82F44"/>
</linearGradient>
<linearGradient id="paint6_linear_4464_274" x1="26.1525" y1="4.07715" x2="25.2524" y2="8.62059" gradientUnits="userSpaceOnUse">
<stop stop-color="#FF8A95"/>
<stop offset="0.66" stop-color="#FF495D"/>
<stop offset="1" stop-color="#FF2D44"/>
</linearGradient>
<linearGradient id="paint7_linear_4464_274" x1="29.9536" y1="8.11889" x2="29.0205" y2="10.779" gradientUnits="userSpaceOnUse">
<stop stop-color="#FF5F5F"/>
<stop offset="0.283" stop-color="#FF565A"/>
<stop offset="0.746" stop-color="#FF3D4D"/>
<stop offset="1" stop-color="#FF2D44"/>
</linearGradient>
<linearGradient id="paint8_linear_4464_274" x1="24.4562" y1="6.94571" x2="23.8436" y2="8.69279" gradientUnits="userSpaceOnUse">
<stop stop-color="#FF5F5F"/>
<stop offset="0.283" stop-color="#FF565A"/>
<stop offset="0.746" stop-color="#FF3D4D"/>
<stop offset="1" stop-color="#FF2D44"/>
</linearGradient>
<linearGradient id="paint9_linear_4464_274" x1="5.35824" y1="4.23912" x2="9.45161" y2="16.3164" gradientUnits="userSpaceOnUse">
<stop stop-color="#FF5F6F"/>
<stop offset="0.346" stop-color="#FF2D44"/>
<stop offset="0.722" stop-color="#D41E32"/>
<stop offset="0.853" stop-color="#D61F33"/>
<stop offset="0.918" stop-color="#DE2337"/>
<stop offset="0.968" stop-color="#EB293E"/>
<stop offset="1" stop-color="#F82F44"/>
</linearGradient>
<linearGradient id="paint10_linear_4464_274" x1="5.84717" y1="4.07714" x2="6.74728" y2="8.62058" gradientUnits="userSpaceOnUse">
<stop stop-color="#FF8A95"/>
<stop offset="0.66" stop-color="#FF495D"/>
<stop offset="1" stop-color="#FF2D44"/>
</linearGradient>
<linearGradient id="paint11_linear_4464_274" x1="10.5768" y1="5.74116" x2="11.2765" y2="8.47184" gradientUnits="userSpaceOnUse">
<stop stop-color="#FF5F5F"/>
<stop offset="0.283" stop-color="#FF565A"/>
<stop offset="0.746" stop-color="#FF3D4D"/>
<stop offset="1" stop-color="#FF2D44"/>
</linearGradient>
<linearGradient id="paint12_linear_4464_274" x1="5.35131" y1="7.81311" x2="5.81079" y2="9.60698" gradientUnits="userSpaceOnUse">
<stop stop-color="#FF5F5F"/>
<stop offset="0.283" stop-color="#FF565A"/>
<stop offset="0.746" stop-color="#FF3D4D"/>
<stop offset="1" stop-color="#FF2D44"/>
</linearGradient>
</defs>
</svg>
