<svg width="32" height="32" viewBox="0 0 32 32" fill="none" xmlns="http://www.w3.org/2000/svg">
<g clip-path="url(#clip0_4464_3317)">
<path d="M14.7694 27.2563C14.2721 26.9204 13.9753 26.3623 13.9753 25.7632C13.9753 25.4392 14.0621 25.1219 14.2265 24.8454C14.3814 24.5846 14.2956 24.2477 14.0349 24.0928C13.774 23.9378 13.4371 24.0237 13.2823 24.2844C13.0171 24.7305 12.877 25.2419 12.877 25.7632C12.877 26.7276 13.3546 27.6259 14.1545 28.1664C14.2488 28.23 14.3556 28.2605 14.4614 28.2605C14.6377 28.2605 14.8108 28.1759 14.917 28.0187C15.0868 27.7674 15.0206 27.426 14.7694 27.2563Z" fill="#3B3A3C"/>
<path d="M10.2675 27.1653L13.0107 20.5602C13.1116 20.2742 12.9616 19.9607 12.6756 19.8597C12.3895 19.7585 12.0759 19.9087 11.975 20.1947L9.14267 27.0527C9.08629 27.2123 9.10673 27.389 9.19792 27.5315L11.4935 31.1183C11.5984 31.2821 11.7755 31.3715 11.9565 31.3715C12.0578 31.3715 12.1604 31.3434 12.252 31.2848C12.5075 31.1213 12.582 30.7817 12.4185 30.5262L10.2675 27.1653Z" fill="#3B3A3C"/>
<path d="M12.3275 19.0624C12.3107 19.0164 12.2878 18.9745 12.261 18.9362C12.5392 18.9677 12.8005 18.7822 12.8588 18.5026C12.9207 18.2057 12.7302 17.9149 12.4333 17.8529L11.1913 17.5939C11.324 17.3267 11.2192 17.0014 10.9534 16.8631L2.59134 12.5092L3.33297 1.24556C3.3529 0.942868 3.12372 0.681431 2.82109 0.661493C2.51909 0.640431 2.25703 0.870743 2.23703 1.17331L1.47178 12.7946C1.45753 13.012 1.57297 13.2172 1.76622 13.3178L9.16915 17.1722L4.1764 16.1311C3.96947 16.0879 3.75659 16.1671 3.62828 16.3347L0.113154 20.9258C-0.0712207 21.1666 -0.0254707 21.5112 0.215342 21.6957C0.314904 21.772 0.432279 21.8088 0.548779 21.8088C0.713842 21.8088 0.877092 21.7347 0.985154 21.5936L4.29022 17.2767L11.5005 18.7803L4.30597 21.4136C4.1809 21.4594 4.07665 21.5491 4.01278 21.666L1.47809 26.3049C1.33265 26.5711 1.43059 26.9047 1.69665 27.0501C1.78028 27.0957 1.87047 27.1174 1.9594 27.1174C2.15372 27.1174 2.34203 27.0141 2.44178 26.8315L4.8774 22.3739L12.0004 19.7668C12.2853 19.6625 12.4317 19.3472 12.3275 19.0624Z" fill="#3B3A3C"/>
<path d="M15.9836 19.1781C20.6387 19.1781 24.4124 15.4043 24.4124 10.7492C24.4124 6.09405 20.6387 2.32031 15.9836 2.32031C11.3284 2.32031 7.55469 6.09405 7.55469 10.7492C7.55469 15.4043 11.3284 19.1781 15.9836 19.1781Z" fill="#57555C"/>
<path d="M24.4127 10.7494C24.4127 6.09413 20.6389 2.32031 15.9836 2.32031C11.3284 2.32031 7.55469 6.09419 7.55469 10.7494C7.55469 14.1163 9.52894 17.0216 12.3828 18.3721C11.9205 19.0565 11.6464 19.8964 11.6434 20.7779C11.6354 23.1767 13.5736 25.1278 15.9723 25.1358C18.3709 25.1439 20.3222 23.2058 20.3302 20.8069C20.3332 19.9034 20.0539 19.0688 19.5842 18.3723C22.4382 17.0219 24.4127 14.1164 24.4127 10.7494Z" fill="#57555C"/>
<path d="M31.8869 20.9265L28.3718 16.3354C28.2435 16.1677 28.0306 16.0886 27.8237 16.1317L22.8958 17.1594L30.3416 13.2826C30.5347 13.182 30.6502 12.9768 30.6359 12.7594L29.8707 1.13819C29.8508 0.835562 29.5888 0.604999 29.2866 0.626374C28.984 0.646187 28.7548 0.907749 28.7748 1.21044L29.5164 12.4741L22.4558 16.1503C23.6774 14.6877 24.4135 12.8057 24.4135 10.7512C24.4135 6.09594 20.6396 2.32212 15.9844 2.32212C14.6255 2.32212 13.3419 2.64419 12.2051 3.21544C12.8812 3.04069 13.5902 2.94756 14.321 2.94756C18.9762 2.94756 22.75 6.72137 22.75 11.3766C22.75 13.9574 21.5899 16.2667 19.763 17.8128C19.763 17.8128 19.4501 18.0677 19.1389 18.2923C18.809 18.5225 18.4623 18.7304 18.1003 18.9123C18.103 18.9116 18.1056 18.9107 18.1083 18.9101C18.3879 19.4827 18.5394 20.1209 18.5371 20.8088C18.5301 22.8954 17.0526 24.6327 15.0894 25.0445C15.3746 25.1044 15.6701 25.1367 15.973 25.1376C16.5474 25.1395 17.0957 25.0288 17.5983 24.8279C17.6012 24.8333 17.6037 24.8389 17.6068 24.8441C17.7711 25.1206 17.858 25.438 17.858 25.762C17.858 26.3611 17.5611 26.9191 17.0639 27.2551C16.8125 27.4248 16.7465 27.7661 16.9162 28.0175C17.0223 28.1746 17.1955 28.2593 17.3718 28.2593C17.4775 28.2593 17.5844 28.2288 17.6786 28.1651C18.4786 27.6247 18.9562 26.7264 18.9562 25.762C18.9562 25.2454 18.8182 24.7387 18.5577 24.2954C19.0743 23.9155 19.5036 23.4241 19.8105 22.8566L21.7331 27.1684L19.5821 30.5293C19.4186 30.7847 19.4932 31.1244 19.7486 31.2879C19.8403 31.3465 19.9428 31.3746 20.0441 31.3746C20.2251 31.3746 20.4024 31.2851 20.5072 31.1214L22.8028 27.5346C22.8941 27.392 22.9145 27.2154 22.8581 27.0558L20.3034 21.2796C20.3206 21.1249 20.3303 20.968 20.3308 20.8088C20.3319 20.4777 20.297 20.1582 20.2297 19.8519L27.1224 22.3748L29.558 26.8324C29.6578 27.0151 29.8461 27.1184 30.0404 27.1184C30.1293 27.1184 30.2196 27.0967 30.3031 27.0511C30.5693 26.9056 30.6672 26.572 30.5217 26.3059L27.987 21.6669C27.9231 21.55 27.819 21.4603 27.6938 21.4146L20.4992 18.7812L27.7095 17.2776L31.0146 21.5945C31.1227 21.7358 31.286 21.8098 31.451 21.8097C31.5674 21.8097 31.6848 21.7729 31.7844 21.6966C32.0255 21.512 32.0713 21.1673 31.8869 20.9265Z" fill="#3B3A3C"/>
<path d="M14.1315 23.1862C14.1783 23.1922 14.2256 23.1964 14.274 23.1964C14.8877 23.1964 15.3853 22.6989 15.3853 22.0851C15.3853 21.4714 14.8878 20.9739 14.274 20.9739C13.9455 20.9739 13.6512 21.1172 13.4478 21.3439C13.4245 21.1592 13.4124 20.9711 13.4131 20.7799C13.4153 20.1079 13.5728 19.4736 13.8478 18.907C14.53 19.0852 15.2457 19.1803 15.9838 19.1803C16.7172 19.1803 17.4287 19.0864 18.1071 18.9104C17.9495 18.9192 17.7909 18.9241 17.6312 18.9241C12.9759 18.9241 9.20212 15.1503 9.20212 10.495C9.20212 6.57319 11.8805 3.27719 15.5078 2.33594C11.074 2.58281 7.55469 6.256 7.55469 10.7514C7.55469 14.3605 9.67475 17.0681 12.3796 18.3795C11.9189 19.0664 11.6466 19.8909 11.6435 20.7801C11.6357 23.1789 13.5739 25.1299 15.9726 25.1379C16.2792 25.1389 16.5782 25.1063 16.8671 25.0467C15.7271 24.8095 14.7523 24.1251 14.1315 23.1862Z" fill="#787780"/>
<path d="M13.9636 11.7905C15.6672 11.7905 17.0483 10.4094 17.0483 8.70578C17.0483 7.00216 15.6672 5.62109 13.9636 5.62109C12.26 5.62109 10.8789 7.00216 10.8789 8.70578C10.8789 10.4094 12.26 11.7905 13.9636 11.7905Z" fill="#787780"/>
</g>
<defs>
<clipPath id="clip0_4464_3317">
<rect width="32" height="32" fill="white"/>
</clipPath>
</defs>
</svg>
